<svg xmlns="http://www.w3.org/2000/svg" viewBox="0 0 1024 1024"><defs><style>.cls-1{fill:#91de00;}.cls-2{fill:#005966;}</style></defs><title>nodejs_icon_1024px</title><g id="artwork"><polygon class="cls-1" points="683.92 840.97 512 693.81 512 776.63 683.91 923.74 683.92 923.74 683.92 923.74 683.92 840.97"/><polygon class="cls-1" points="69.46 767.5 241.38 859.85 241.38 403.62 69.46 256.5 69.46 767.5"/><polygon class="cls-1" points="954.54 256.5 782.62 157.24 782.62 620.39 954.54 767.5 954.54 256.5"/><polygon class="cls-1" points="340.08 100.26 340.08 100.26 340.08 183.03 512 330.19 512 247.37 340.08 100.26 340.08 100.26"/><polygon class="cls-2" points="241.38 157.24 69.46 256.5 782.62 866.76 954.54 767.5 241.38 157.24"/><polygon class="cls-2" points="683.92 923.74 683.91 923.74 340.03 629.47 340.03 923.71 512 1023 512 1023 683.92 923.74"/><polygon class="cls-2" points="512 1 340.08 100.26 340.08 100.26 512 247.37 683.97 394.53 683.97 100.29 512 1"/></g></svg>