<?xml version="1.0" encoding="utf-8"?>
<!-- Generator: Adobe Illustrator 24.2.1, SVG Export Plug-In . SVG Version: 6.00 Build 0)  -->
<svg version="1.1" id="Layer_1" xmlns="http://www.w3.org/2000/svg" xmlns:xlink="http://www.w3.org/1999/xlink" x="0px" y="0px"
	 viewBox="0 0 16 16" style="enable-background:new 0 0 16 16;" xml:space="preserve">
<style type="text/css">
	.st0{fill:#91DE00;}
</style>
<g>
	<path class="st0" d="M15,8.7c0,1.2-0.2,2.1-0.5,2.8c-0.2,0.4-0.5,0.8-0.9,1.1c-0.4,0.3-0.8,0.6-1.2,0.7c-0.4,0.2-0.9,0.3-1.4,0.4
		c-0.5,0.1-1,0.2-1.4,0.2c-0.4,0-0.9,0-1.4,0c-0.4,0-0.8,0-1.2,0c-0.4,0-0.8-0.1-1.2-0.1c-0.5-0.1-0.9-0.1-1.3-0.3
		c-0.4-0.1-0.8-0.3-1.2-0.4c-0.4-0.2-0.7-0.4-1-0.7c-0.3-0.3-0.5-0.6-0.7-1C1.2,10.8,1,9.9,1,8.7c0-1.3,0.4-2.5,1.1-3.4
		C2,4.8,1.9,4.4,1.9,3.9c0-0.7,0.1-1.3,0.4-1.9C3,2,3.5,2.1,3.9,2.3s1,0.6,1.6,1.1c0.8-0.2,1.7-0.3,2.6-0.3c0.8,0,1.6,0.1,2.4,0.3
		c0.6-0.5,1.1-0.8,1.6-1c0.5-0.2,1-0.3,1.6-0.3c0.3,0.6,0.4,1.2,0.4,1.9c0,0.5-0.1,1-0.2,1.4C14.6,6.2,15,7.3,15,8.7z M13.1,10.2
		c0-0.7-0.2-1.3-0.6-1.7C12.1,8,11.6,7.7,11,7.7c-0.2,0-0.8,0.1-1.6,0.2C8.9,8,8.5,8,8,8S7.1,8,6.7,7.9C5.8,7.8,5.3,7.7,5,7.7
		C4.4,7.7,3.9,8,3.5,8.4c-0.4,0.5-0.6,1.1-0.6,1.7c0,0.5,0.1,0.9,0.3,1.3c0.2,0.4,0.4,0.7,0.7,0.9c0.3,0.2,0.6,0.4,1,0.5
		C5.3,13,5.7,13.1,6,13.1c0.4,0,0.8,0.1,1.3,0.1h1.4c0.5,0,0.9,0,1.3-0.1c0.4,0,0.8-0.1,1.2-0.3c0.4-0.1,0.8-0.3,1-0.5
		c0.3-0.2,0.5-0.5,0.7-0.9C13,11.1,13.1,10.7,13.1,10.2z M6.3,9.5c0.1,0.2,0.1,0.5,0.1,0.7c0,0.2,0,0.5-0.1,0.7
		c-0.1,0.2-0.2,0.5-0.4,0.6c-0.2,0.2-0.4,0.3-0.6,0.3s-0.4-0.1-0.6-0.3c-0.2-0.2-0.3-0.4-0.4-0.6c-0.1-0.2-0.1-0.5-0.1-0.7
		c0-0.2,0-0.5,0.1-0.7C4.4,9.2,4.5,9,4.7,8.8c0.2-0.2,0.4-0.3,0.6-0.3s0.4,0.1,0.6,0.3C6.1,9,6.2,9.2,6.3,9.5z M11.7,9.5
		c0.1,0.2,0.1,0.5,0.1,0.7c0,0.2,0,0.5-0.1,0.7s-0.2,0.5-0.4,0.6c-0.2,0.2-0.4,0.3-0.6,0.3c-0.2,0-0.4-0.1-0.6-0.3
		c-0.2-0.2-0.3-0.4-0.4-0.6c-0.1-0.2-0.1-0.5-0.1-0.7c0-0.2,0-0.5,0.1-0.7C9.8,9.2,9.9,9,10.1,8.8c0.2-0.2,0.4-0.3,0.6-0.3
		c0.2,0,0.4,0.1,0.6,0.3C11.5,9,11.6,9.2,11.7,9.5z"/>
</g>
</svg>
