<?xml version="1.0" encoding="utf-8"?>
<!-- Generator: Adobe Illustrator 24.2.1, SVG Export Plug-In . SVG Version: 6.00 Build 0)  -->
<svg version="1.1" id="Layer_1" xmlns="http://www.w3.org/2000/svg" xmlns:xlink="http://www.w3.org/1999/xlink" x="0px" y="0px"
	 viewBox="0 0 450 110" style="enable-background:new 0 0 450 110;" xml:space="preserve">
<style type="text/css">
	.st0{fill:#91DE00;}
	.st1{fill:#FFFFFF;}
	.st2{fill:#005966;}
</style>
<g>
	<g>
		<polygon class="st0" points="65.8,89.6 47.7,74.1 47.7,82.8 65.8,98.3 65.8,98.3 65.8,98.3 		"/>
		<polygon class="st0" points="1,81.9 19.1,91.6 19.1,43.5 1,28 		"/>
		<polygon class="st0" points="94.4,28 76.2,17.5 76.2,66.3 94.4,81.9 		"/>
		<polygon class="st0" points="29.5,11.5 29.5,11.5 29.5,20.2 47.7,35.7 47.7,27 29.5,11.5 		"/>
	</g>
	<g>
		<g>
			<path class="st1" d="M125.2,85.6V23.5h13.9l9.4,27.5h0.2V23.5h12.5v62.2h-13.5l-9.9-32.2h-0.2v32.2H125.2z"/>
			<path class="st1" d="M165,36.3c2.1-10,8.8-13.9,18.1-13.9c9.3,0,16,3.8,18.1,13.9c0.7,3.2,1,8.7,1,18.3c0,9.5-0.3,15.1-1,18.3
				c-2.1,10-8.8,13.9-18.1,13.9c-9.3,0-16-3.8-18.1-13.9c-0.7-3.2-1-8.7-1-18.3C164,45,164.3,39.5,165,36.3z M179.3,68.7
				c0,3.7,1.6,5.2,3.8,5.2c2.3,0,3.8-1.5,3.8-5.2V40.4c0-3.7-1.6-5.2-3.8-5.2c-2.3,0-3.8,1.5-3.8,5.2V68.7z"/>
			<path class="st1" d="M204.9,23.5h14.7c16.4,0,21.5,4.2,21.5,31.1c0,23.8-3.5,31.1-21.5,31.1h-14.7V23.5z M219.4,73.7
				c6.6,0,7.1-2.3,7.1-13.7V48.8c0-11.3-0.5-13.7-7.1-13.7V73.7z"/>
			<path class="st1" d="M244.7,85.6V23.5h31.5v12.8h-17v10.6h14v13.3h-14v12.1h17.8v13.3H244.7z"/>
			<path class="st1" d="M302.2,42.7c-0.2-6.8-2.2-8.7-5.3-8.7c-2.8,0-4.2,1.9-4.2,4.2c0,7.4,23.4,13.5,23.4,30.8
				c0,12.5-7.5,17.7-19.6,17.7c-15.3,0-18.2-10.6-18.2-21.7h13.5v2.9c0,4.2,2.3,7.3,5.7,7.3c2.9,0,5-1.7,5-5
				c0-8.2-23.4-14.6-23.4-31.3c0-10.5,8.3-16.3,17.8-16.3c10.9,0,18.4,7.2,18.4,17.6v2.7H302.2z"/>
			<path class="st1" d="M355.5,85.6H341V61.9H334v23.7h-14.5V23.5H334v22.3h6.9V23.5h14.5V85.6z"/>
			<path class="st1" d="M360.4,85.6V23.5H375v62.2H360.4z"/>
			<polygon class="st1" points="379.9,23.5 379.9,85.6 394.5,85.6 394.5,60.9 409,60.9 409,47.5 394.5,47.5 394.5,36.3 423.2,36.3 
				423.2,85.6 437.7,85.6 437.7,36.3 449,36.3 449,23.5 			"/>
		</g>
		<g>
			<polygon class="st2" points="19.1,17.5 1,28 76.2,92.3 94.4,81.9 			"/>
			<polygon class="st2" points="65.8,98.3 65.8,98.3 29.5,67.3 29.5,98.3 47.7,108.8 47.7,108.8 			"/>
			<polygon class="st2" points="47.7,1 29.5,11.5 29.5,11.5 47.7,27 65.8,42.5 65.8,11.5 			"/>
		</g>
	</g>
</g>
</svg>
