<svg xmlns="http://www.w3.org/2000/svg" viewBox="0 0 1280 310"><defs><style>.cls-1{fill:#005966;}.cls-2{fill:#91de00;}</style></defs><title>nodejs_logo_lightbkg_1280px</title><g id="artwork"><path class="cls-1" d="M355.41,242.45V65.13h39.76l26.91,78.53h.5V65.13h35.56V242.45H419.61l-28.15-91.87H391v91.87Z"/><path class="cls-1" d="M468.76,101.68C474.68,73,494,62.17,520.37,62.17S566.06,73,572,101.68c2,9.14,2.72,24.94,2.72,52.11s-.74,43-2.72,52.11c-5.92,28.64-25.19,39.51-51.61,39.51s-45.69-10.87-51.61-39.51c-2-9.14-2.72-25-2.72-52.11S466.78,110.82,468.76,101.68ZM509.5,194c0,10.62,4.45,14.82,10.87,14.82s10.87-4.2,10.87-14.82V113.53c0-10.61-4.45-14.81-10.87-14.81s-10.87,4.2-10.87,14.81Z"/><path class="cls-1" d="M582.6,65.13h42c46.93,0,61.25,11.85,61.25,88.66,0,67.91-10.13,88.66-61.25,88.66h-42Zm41.49,143.24c18.77,0,20.25-6.67,20.25-39V137.24c0-32.35-1.48-39-20.25-39Z"/><path class="cls-1" d="M696.2,242.45V65.13h89.89v36.55h-48.4v30.13h40v38h-40v34.57h50.87v38Z"/><path class="cls-1" d="M860.17,120c-.49-19.27-6.17-24.7-15.06-24.7-7.9,0-12.1,5.43-12.1,11.85,0,21.24,66.68,38.53,66.68,87.92,0,35.56-21.49,50.38-55.82,50.38-43.71,0-51.86-30.38-51.86-62h38.53v8.15c0,11.86,6.42,20.75,16.3,20.75,8.39,0,14.32-4.94,14.32-14.33,0-23.46-66.68-41.73-66.68-89.39,0-29.89,23.71-46.43,50.88-46.43,31.11,0,52.35,20.49,52.35,50.13V120Z"/><path class="cls-1" d="M1012.3,242.45H970.81V174.78H951.05v67.67H909.56V65.13h41.49v63.72h19.76V65.13h41.49Z"/><path class="cls-1" d="M1026.37,242.45V65.13h41.49V242.45Z"/><polygon class="cls-2" points="185.91 253.77 134.17 209.49 134.17 234.41 185.91 278.68 185.91 278.68 185.91 278.68 185.91 253.77"/><polygon class="cls-2" points="1 231.66 52.74 259.45 52.74 122.16 1 77.89 1 231.66"/><polygon class="cls-2" points="267.35 77.89 215.61 48.02 215.61 187.39 267.35 231.66 267.35 77.89"/><polygon class="cls-2" points="82.44 30.87 82.44 30.87 82.44 55.78 134.17 100.06 134.17 75.14 82.44 30.87 82.44 30.87"/><polygon class="cls-1" points="52.74 48.02 1 77.89 215.61 261.53 267.35 231.66 52.74 48.02"/><polygon class="cls-1" points="185.91 278.68 185.91 278.68 82.42 190.13 82.42 278.67 134.17 308.55 134.17 308.55 185.91 278.68"/><polygon class="cls-1" points="134.17 1 82.44 30.87 82.44 30.87 134.17 75.14 185.93 119.42 185.93 30.88 134.17 1"/><polygon class="cls-1" points="1081.93 65.13 1081.93 242.45 1123.42 242.45 1123.42 171.82 1164.91 171.82 1164.91 133.78 1123.42 133.78 1123.42 101.68 1205.41 101.68 1205.41 242.45 1246.89 242.45 1246.89 101.68 1279 101.68 1279 65.13 1081.93 65.13"/></g></svg>