<?xml version="1.0" encoding="utf-8"?>
<!-- Generator: Adobe Illustrator 24.2.1, SVG Export Plug-In . SVG Version: 6.00 Build 0)  -->
<svg version="1.1" id="Layer_1" xmlns="http://www.w3.org/2000/svg" xmlns:xlink="http://www.w3.org/1999/xlink" x="0px" y="0px"
	 viewBox="0 0 1920 1080" style="enable-background:new 0 0 1920 1080;" xml:space="preserve">
<style type="text/css">
	.st0{opacity:0.101;}
	.st1{fill:none;stroke:#FFFFFF;stroke-width:7.0141;stroke-miterlimit:10;}
</style>
<g id="NodeShift_-_HERO_BKG" transform="translate(22182 23251)">
	<g id="Group_443" transform="translate(-22174.35 -23217.275)" class="st0">
		<path id="Path_668" class="st1" d="M105.3,31.2v-64.9L48.8-66.2L-7.7-33.7v64.9l56.5,32.5L105.3,31.2z"/>
		<path id="Path_669" class="st1" d="M161.8-1.3v-64.9l-56.5-32.5L48.8-66.2v64.9l56.5,32.5L161.8-1.3z"/>
		<path id="Path_670" class="st1" d="M-64.1-1.3v-64.9l56.5-32.5l56.5,32.5v64.9L-7.7,31.2L-64.1-1.3z"/>
		<path id="Path_671" class="st1" d="M105.3,161.1V96.2L48.8,63.7L-7.7,96.2v64.9l56.5,32.5L105.3,161.1z"/>
		<path id="Path_672" class="st1" d="M161.8,128.6V63.7l-56.5-32.5L48.8,63.7v64.9l56.5,32.5L161.8,128.6z"/>
		<path id="Path_673" class="st1" d="M-64.1,128.6V63.7l56.5-32.5l56.5,32.5v64.9l-56.5,32.5L-64.1,128.6z"/>
		<path id="Path_674" class="st1" d="M105.3,291v-64.9l-56.5-32.5l-56.5,32.5V291l56.5,32.5L105.3,291z"/>
		<path id="Path_675" class="st1" d="M161.8,258.5v-64.9l-56.5-32.5l-56.5,32.5v64.9l56.5,32.5L161.8,258.5z"/>
		<path id="Path_676" class="st1" d="M-64.1,258.5v-64.9l56.5-32.5l56.5,32.5v64.9L-7.7,291L-64.1,258.5z"/>
		<path id="Path_677" class="st1" d="M105.3,420.9V356l-56.5-32.5L-7.7,356v64.9l56.5,32.5L105.3,420.9z"/>
		<path id="Path_678" class="st1" d="M161.8,388.4v-64.9L105.3,291l-56.5,32.5v64.9l56.5,32.5L161.8,388.4z"/>
		<path id="Path_679" class="st1" d="M-64.1,388.4v-64.9L-7.7,291l56.5,32.5v64.9l-56.5,32.5L-64.1,388.4z"/>
		<path id="Path_680" class="st1" d="M105.3,550.8v-64.9l-56.5-32.5l-56.5,32.5v64.9l56.5,32.5L105.3,550.8z"/>
		<path id="Path_681" class="st1" d="M161.8,518.3v-64.9l-56.5-32.5l-56.5,32.5v64.9l56.5,32.5L161.8,518.3z"/>
		<path id="Path_682" class="st1" d="M-64.1,518.3v-64.9l56.5-32.5l56.5,32.5v64.9l-56.5,32.5L-64.1,518.3z"/>
		<path id="Path_683" class="st1" d="M105.3,680.7v-64.9l-56.5-32.5l-56.5,32.5v64.9l56.5,32.5L105.3,680.7z"/>
		<path id="Path_684" class="st1" d="M161.8,648.2v-64.9l-56.5-32.5l-56.5,32.5v64.9l56.5,32.5L161.8,648.2z"/>
		<path id="Path_685" class="st1" d="M-64.1,648.2v-64.9l56.5-32.5l56.5,32.5v64.9l-56.5,32.5L-64.1,648.2z"/>
		<path id="Path_686" class="st1" d="M105.3,810.6v-64.9l-56.5-32.5l-56.5,32.5v64.9L48.8,843L105.3,810.6z"/>
		<path id="Path_687" class="st1" d="M161.8,778.1v-64.9l-56.5-32.5l-56.5,32.5v64.9l56.5,32.5L161.8,778.1z"/>
		<path id="Path_688" class="st1" d="M-64.1,778.1v-64.9l56.5-32.5l56.5,32.5v64.9l-56.5,32.5L-64.1,778.1z"/>
		<path id="Path_689" class="st1" d="M105.3,940.5v-64.9L48.8,843l-56.5,32.5v64.9l56.5,32.5L105.3,940.5z"/>
		<path id="Path_690" class="st1" d="M161.8,908v-65l-56.5-32.5L48.8,843v65l56.5,32.5L161.8,908z"/>
		<path id="Path_691" class="st1" d="M-64.1,908v-65l56.5-32.5L48.8,843v65l-56.5,32.5L-64.1,908z"/>
		<path id="Path_692" class="st1" d="M105.3,1070.3v-64.9l-56.5-32.5l-56.5,32.5v64.9l56.5,32.5L105.3,1070.3z"/>
		<path id="Path_693" class="st1" d="M161.8,1037.9V973l-56.5-32.5L48.8,973v64.9l56.5,32.5L161.8,1037.9z"/>
		<path id="Path_694" class="st1" d="M-64.1,1037.9V973l56.5-32.5L48.9,973v64.9l-56.5,32.5L-64.1,1037.9z"/>
		<path id="Path_695" class="st1" d="M105.3,1200.2v-64.9l-56.5-32.5l-56.5,32.5v64.9l56.5,32.5L105.3,1200.2z"/>
		<path id="Path_696" class="st1" d="M161.8,1167.8v-64.9l-56.5-32.5l-56.5,32.5v64.9l56.5,32.5L161.8,1167.8z"/>
		<path id="Path_697" class="st1" d="M-64.1,1167.8v-64.9l56.5-32.5l56.5,32.5v64.9l-56.5,32.5L-64.1,1167.8z"/>
		<path id="Path_698" class="st1" d="M331.2,31.2v-64.9l-56.5-32.5l-56.5,32.5v64.9l56.5,32.5L331.2,31.2z"/>
		<path id="Path_699" class="st1" d="M387.6-1.3v-64.9l-56.5-32.5l-56.5,32.5v64.9l56.5,32.5L387.6-1.3z"/>
		<path id="Path_700" class="st1" d="M161.8-1.3v-64.9l56.5-32.5l56.5,32.5v64.9l-56.5,32.5L161.8-1.3z"/>
		<path id="Path_701" class="st1" d="M331.2,161.1V96.2l-56.5-32.5l-56.5,32.5v64.9l56.5,32.5L331.2,161.1z"/>
		<path id="Path_702" class="st1" d="M387.6,128.6V63.7l-56.5-32.5l-56.5,32.5v64.9l56.5,32.5L387.6,128.6z"/>
		<path id="Path_703" class="st1" d="M161.8,128.6V63.7l56.5-32.5l56.5,32.5v64.9l-56.5,32.5L161.8,128.6z"/>
		<path id="Path_704" class="st1" d="M331.2,291v-64.9l-56.5-32.5l-56.5,32.5V291l56.5,32.5L331.2,291z"/>
		<path id="Path_705" class="st1" d="M387.6,258.5v-64.9l-56.5-32.5l-56.5,32.5v64.9l56.5,32.5L387.6,258.5z"/>
		<path id="Path_706" class="st1" d="M161.8,258.5v-64.9l56.5-32.5l56.5,32.5v64.9L218.2,291L161.8,258.5z"/>
		<path id="Path_707" class="st1" d="M331.2,420.9V356l-56.5-32.5L218.2,356v64.9l56.5,32.5L331.2,420.9z"/>
		<path id="Path_708" class="st1" d="M387.6,388.4v-64.9L331.2,291l-56.5,32.5v64.9l56.5,32.5L387.6,388.4z"/>
		<path id="Path_709" class="st1" d="M161.8,388.4v-64.9l56.5-32.5l56.5,32.5v64.9l-56.5,32.5L161.8,388.4z"/>
		<path id="Path_710" class="st1" d="M331.2,550.8v-64.9l-56.5-32.5l-56.5,32.5v64.9l56.5,32.5L331.2,550.8z"/>
		<path id="Path_711" class="st1" d="M387.6,518.3v-64.9l-56.5-32.5l-56.5,32.5v64.9l56.5,32.5L387.6,518.3z"/>
		<path id="Path_712" class="st1" d="M161.8,518.3v-64.9l56.5-32.5l56.5,32.5v64.9l-56.5,32.5L161.8,518.3z"/>
		<path id="Path_713" class="st1" d="M331.2,680.7v-64.9l-56.5-32.5l-56.5,32.5v64.9l56.5,32.5L331.2,680.7z"/>
		<path id="Path_714" class="st1" d="M387.6,648.2v-64.9l-56.5-32.5l-56.5,32.5v64.9l56.5,32.5L387.6,648.2z"/>
		<path id="Path_715" class="st1" d="M161.8,648.2v-64.9l56.5-32.5l56.5,32.5v64.9l-56.5,32.5L161.8,648.2z"/>
		<path id="Path_716" class="st1" d="M331.2,810.6v-64.9l-56.5-32.5l-56.5,32.5v64.9l56.5,32.5L331.2,810.6z"/>
		<path id="Path_717" class="st1" d="M387.6,778.1v-64.9l-56.5-32.5l-56.5,32.5v64.9l56.5,32.5L387.6,778.1z"/>
		<path id="Path_718" class="st1" d="M161.8,778.1v-64.9l56.5-32.5l56.5,32.5v64.9l-56.5,32.5L161.8,778.1z"/>
		<path id="Path_719" class="st1" d="M331.2,940.5v-64.9L274.7,843l-56.5,32.5v64.9l56.5,32.5L331.2,940.5z"/>
		<path id="Path_720" class="st1" d="M387.6,908v-65l-56.5-32.5L274.7,843v65l56.5,32.5L387.6,908z"/>
		<path id="Path_721" class="st1" d="M161.8,908v-65l56.5-32.5l56.5,32.5v65l-56.5,32.5L161.8,908z"/>
		<path id="Path_722" class="st1" d="M331.2,1070.3v-64.9l-56.5-32.5l-56.5,32.5v64.9l56.5,32.5L331.2,1070.3z"/>
		<path id="Path_723" class="st1" d="M387.6,1037.9V973l-56.5-32.5L274.6,973v64.9l56.5,32.5L387.6,1037.9z"/>
		<path id="Path_724" class="st1" d="M161.8,1037.9V973l56.5-32.5l56.5,32.5v64.9l-56.5,32.5L161.8,1037.9z"/>
		<path id="Path_725" class="st1" d="M331.2,1200.2v-64.9l-56.5-32.5l-56.5,32.5v64.9l56.5,32.5L331.2,1200.2z"/>
		<path id="Path_726" class="st1" d="M387.6,1167.8v-64.9l-56.5-32.5l-56.5,32.5v64.9l56.5,32.5L387.6,1167.8z"/>
		<path id="Path_727" class="st1" d="M161.8,1167.8v-64.9l56.5-32.5l56.5,32.5v64.9l-56.5,32.5L161.8,1167.8z"/>
		<path id="Path_728" class="st1" d="M557.1,31.2v-64.9l-56.5-32.5l-56.5,32.5v64.9l56.5,32.5L557.1,31.2z"/>
		<path id="Path_729" class="st1" d="M613.5-1.3v-64.9L557-98.7l-56.5,32.5v64.9L557,31.2L613.5-1.3z"/>
		<path id="Path_730" class="st1" d="M387.6-1.3v-64.9l56.5-32.5l56.5,32.5v64.9l-56.5,32.5L387.6-1.3z"/>
		<path id="Path_731" class="st1" d="M557.1,161.1V96.2l-56.5-32.5l-56.5,32.5v64.9l56.5,32.5L557.1,161.1z"/>
		<path id="Path_732" class="st1" d="M613.5,128.6V63.7L557,31.2l-56.5,32.5v64.9l56.5,32.5L613.5,128.6z"/>
		<path id="Path_733" class="st1" d="M387.6,128.6V63.7l56.5-32.5l56.5,32.5v64.9l-56.5,32.5L387.6,128.6z"/>
		<path id="Path_734" class="st1" d="M557.1,291v-64.9l-56.5-32.5l-56.5,32.5V291l56.5,32.5L557.1,291z"/>
		<path id="Path_735" class="st1" d="M613.5,258.5v-64.9L557,161.1l-56.5,32.5v64.9L557,291L613.5,258.5z"/>
		<path id="Path_736" class="st1" d="M387.6,258.5v-64.9l56.5-32.5l56.5,32.5v64.9L444.1,291L387.6,258.5z"/>
		<path id="Path_737" class="st1" d="M557.1,420.9V356l-56.5-32.5L444.1,356v64.9l56.5,32.5L557.1,420.9z"/>
		<path id="Path_738" class="st1" d="M613.5,388.4v-64.9L557.1,291l-56.5,32.5v64.9l56.5,32.5L613.5,388.4z"/>
		<path id="Path_739" class="st1" d="M387.6,388.4v-64.9l56.5-32.5l56.5,32.5v64.9l-56.5,32.5L387.6,388.4z"/>
		<path id="Path_740" class="st1" d="M557.1,550.8v-64.9l-56.5-32.5l-56.5,32.5v64.9l56.5,32.5L557.1,550.8z"/>
		<path id="Path_741" class="st1" d="M613.5,518.3v-64.9L557,420.9l-56.5,32.5v64.9l56.5,32.5L613.5,518.3z"/>
		<path id="Path_742" class="st1" d="M387.6,518.3v-64.9l56.5-32.5l56.5,32.5v64.9l-56.5,32.5L387.6,518.3z"/>
		<path id="Path_743" class="st1" d="M557.1,680.7v-64.9l-56.5-32.5l-56.5,32.5v64.9l56.5,32.5L557.1,680.7z"/>
		<path id="Path_744" class="st1" d="M613.5,648.2v-64.9L557,550.8l-56.5,32.5v64.9l56.5,32.5L613.5,648.2z"/>
		<path id="Path_745" class="st1" d="M387.6,648.2v-64.9l56.5-32.5l56.5,32.5v64.9l-56.5,32.5L387.6,648.2z"/>
		<path id="Path_746" class="st1" d="M557.1,810.6v-64.9l-56.5-32.5l-56.5,32.5v64.9l56.5,32.5L557.1,810.6z"/>
		<path id="Path_747" class="st1" d="M613.5,778.1v-64.9L557,680.7l-56.5,32.5v64.9l56.5,32.5L613.5,778.1z"/>
		<path id="Path_748" class="st1" d="M387.6,778.1v-64.9l56.5-32.5l56.5,32.5v64.9l-56.5,32.5L387.6,778.1z"/>
		<path id="Path_749" class="st1" d="M557.1,940.5v-64.9L500.6,843l-56.5,32.5v64.9l56.5,32.5L557.1,940.5z"/>
		<path id="Path_750" class="st1" d="M613.5,908v-65L557,810.5L500.6,843v65l56.5,32.5L613.5,908z"/>
		<path id="Path_751" class="st1" d="M387.6,908v-65l56.5-32.5l56.5,32.5v65l-56.5,32.5L387.6,908z"/>
		<path id="Path_752" class="st1" d="M557.1,1070.3v-64.9l-56.5-32.5l-56.5,32.5v64.9l56.5,32.5L557.1,1070.3z"/>
		<path id="Path_753" class="st1" d="M613.5,1037.9V973L557,940.5L500.5,973v64.9l56.5,32.5L613.5,1037.9z"/>
		<path id="Path_754" class="st1" d="M387.6,1037.9V973l56.5-32.5l56.5,32.5v64.9l-56.5,32.5L387.6,1037.9z"/>
		<path id="Path_755" class="st1" d="M557.1,1200.2v-64.9l-56.5-32.5l-56.5,32.5v64.9l56.5,32.5L557.1,1200.2z"/>
		<path id="Path_756" class="st1" d="M613.5,1167.8v-64.9l-56.5-32.5l-56.5,32.5v64.9l56.5,32.5L613.5,1167.8z"/>
		<path id="Path_757" class="st1" d="M387.6,1167.8v-64.9l56.5-32.5l56.5,32.5v64.9l-56.5,32.5L387.6,1167.8z"/>
		<path id="Path_758" class="st1" d="M782.9,31.2v-64.9l-56.5-32.5L670-33.7v64.9l56.5,32.5L782.9,31.2z"/>
		<path id="Path_759" class="st1" d="M839.4-1.3v-64.9l-56.5-32.5l-56.5,32.5v64.9l56.5,32.5L839.4-1.3z"/>
		<path id="Path_760" class="st1" d="M613.5-1.3v-64.9L670-98.7l56.5,32.5v64.9L670,31.2L613.5-1.3z"/>
		<path id="Path_761" class="st1" d="M782.9,161.1V96.2l-56.5-32.5L670,96.2v64.9l56.5,32.5L782.9,161.1z"/>
		<path id="Path_762" class="st1" d="M839.4,128.6V63.7l-56.5-32.5l-56.5,32.5v64.9l56.5,32.5L839.4,128.6z"/>
		<path id="Path_763" class="st1" d="M613.5,128.6V63.7L670,31.2l56.5,32.5v64.9L670,161.1L613.5,128.6z"/>
		<path id="Path_764" class="st1" d="M782.9,291v-64.9l-56.5-32.5L670,226.1V291l56.5,32.5L782.9,291z"/>
		<path id="Path_765" class="st1" d="M839.4,258.5v-64.9l-56.5-32.5l-56.5,32.5v64.9l56.5,32.5L839.4,258.5z"/>
		<path id="Path_766" class="st1" d="M613.5,258.5v-64.9l56.5-32.5l56.5,32.5v64.9L670,291L613.5,258.5z"/>
		<path id="Path_767" class="st1" d="M782.9,420.9V356l-56.5-32.5L670,355.9v64.9l56.5,32.5L782.9,420.9z"/>
		<path id="Path_768" class="st1" d="M839.4,388.4v-64.9L782.9,291l-56.5,32.5v64.9l56.5,32.5L839.4,388.4z"/>
		<path id="Path_769" class="st1" d="M613.5,388.4v-64.9L670,291l56.5,32.5v64.9L670,420.9L613.5,388.4z"/>
		<path id="Path_770" class="st1" d="M782.9,550.8v-64.9l-56.5-32.5L670,485.8v64.9l56.5,32.5L782.9,550.8z"/>
		<path id="Path_771" class="st1" d="M839.4,518.3v-64.9l-56.5-32.5l-56.5,32.5v64.9l56.5,32.5L839.4,518.3z"/>
		<path id="Path_772" class="st1" d="M613.5,518.3v-64.9l56.5-32.5l56.5,32.5v64.9L670,550.8L613.5,518.3z"/>
		<path id="Path_773" class="st1" d="M782.9,680.7v-64.9l-56.5-32.5L670,615.7v64.9l56.5,32.5L782.9,680.7z"/>
		<path id="Path_774" class="st1" d="M839.4,648.2v-64.9l-56.5-32.5l-56.5,32.5v64.9l56.5,32.5L839.4,648.2z"/>
		<path id="Path_775" class="st1" d="M613.5,648.2v-64.9l56.5-32.5l56.5,32.5v64.9L670,680.7L613.5,648.2z"/>
		<path id="Path_776" class="st1" d="M782.9,810.6v-64.9l-56.5-32.5L670,745.6v64.9l56.5,32.5L782.9,810.6z"/>
		<path id="Path_777" class="st1" d="M839.4,778.1v-64.9l-56.5-32.5l-56.5,32.5v64.9l56.5,32.5L839.4,778.1z"/>
		<path id="Path_778" class="st1" d="M613.5,778.1v-64.9l56.5-32.5l56.5,32.5v64.9L670,810.6L613.5,778.1z"/>
		<path id="Path_779" class="st1" d="M782.9,940.5v-64.9L726.5,843L670,875.5v64.9l56.5,32.5L782.9,940.5z"/>
		<path id="Path_780" class="st1" d="M839.4,908v-65l-56.5-32.5L726.5,843v65l56.5,32.5L839.4,908z"/>
		<path id="Path_781" class="st1" d="M613.5,908v-65l56.5-32.5l56.5,32.5v65L670,940.5L613.5,908z"/>
		<path id="Path_782" class="st1" d="M782.9,1070.3v-64.9l-56.5-32.5l-56.5,32.5v64.9l56.5,32.5L782.9,1070.3z"/>
		<path id="Path_783" class="st1" d="M839.4,1037.9V973l-56.5-32.5L726.4,973v64.9l56.5,32.5L839.4,1037.9z"/>
		<path id="Path_784" class="st1" d="M613.5,1037.9V973l56.5-32.5l56.5,32.5v64.9l-56.5,32.5L613.5,1037.9z"/>
		<path id="Path_785" class="st1" d="M782.9,1200.2v-64.9l-56.5-32.5l-56.5,32.5v64.9l56.5,32.5L782.9,1200.2z"/>
		<path id="Path_786" class="st1" d="M839.4,1167.8v-64.9l-56.5-32.5l-56.5,32.5v64.9l56.5,32.5L839.4,1167.8z"/>
		<path id="Path_787" class="st1" d="M613.5,1167.8v-64.9l56.5-32.5l56.5,32.5v64.9l-56.5,32.5L613.5,1167.8z"/>
		<path id="Path_788" class="st1" d="M1008.8,31.2v-64.9l-56.5-32.5l-56.5,32.5v64.9l56.5,32.5L1008.8,31.2z"/>
		<path id="Path_789" class="st1" d="M1065.3-1.3v-64.9l-56.5-32.5l-56.5,32.5v64.9l56.5,32.5L1065.3-1.3z"/>
		<path id="Path_790" class="st1" d="M839.4-1.3v-64.9l56.5-32.5l56.5,32.5v64.9l-56.5,32.5L839.4-1.3z"/>
		<path id="Path_791" class="st1" d="M1008.8,161.1V96.2l-56.5-32.5l-56.5,32.5v64.9l56.5,32.5L1008.8,161.1z"/>
		<path id="Path_792" class="st1" d="M1065.3,128.6V63.7l-56.5-32.5l-56.5,32.5v64.9l56.5,32.5L1065.3,128.6z"/>
		<path id="Path_793" class="st1" d="M839.4,128.6V63.7l56.5-32.5l56.5,32.5v64.9l-56.5,32.5L839.4,128.6z"/>
		<path id="Path_794" class="st1" d="M1008.8,291v-64.9l-56.5-32.5l-56.5,32.5V291l56.5,32.5L1008.8,291z"/>
		<path id="Path_795" class="st1" d="M1065.3,258.5v-64.9l-56.5-32.5l-56.5,32.5v64.9l56.5,32.5L1065.3,258.5z"/>
		<path id="Path_796" class="st1" d="M839.4,258.5v-64.9l56.5-32.5l56.5,32.5v64.9L895.9,291L839.4,258.5z"/>
		<path id="Path_797" class="st1" d="M1008.8,420.9V356l-56.5-32.5L895.8,356v64.9l56.5,32.5L1008.8,420.9z"/>
		<path id="Path_798" class="st1" d="M1065.3,388.4v-64.9l-56.5-32.5l-56.5,32.5v64.9l56.5,32.5L1065.3,388.4z"/>
		<path id="Path_799" class="st1" d="M839.4,388.4v-64.9l56.5-32.5l56.5,32.5v64.9l-56.5,32.5L839.4,388.4z"/>
		<path id="Path_800" class="st1" d="M1008.8,550.8v-64.9l-56.5-32.5l-56.5,32.5v64.9l56.5,32.5L1008.8,550.8z"/>
		<path id="Path_801" class="st1" d="M1065.3,518.3v-64.9l-56.5-32.5l-56.5,32.5v64.9l56.5,32.5L1065.3,518.3z"/>
		<path id="Path_802" class="st1" d="M839.4,518.3v-64.9l56.5-32.5l56.5,32.5v64.9l-56.5,32.5L839.4,518.3z"/>
		<path id="Path_803" class="st1" d="M1008.8,680.7v-64.9l-56.5-32.5l-56.5,32.5v64.9l56.5,32.5L1008.8,680.7z"/>
		<path id="Path_804" class="st1" d="M1065.3,648.2v-64.9l-56.5-32.5l-56.5,32.5v64.9l56.5,32.5L1065.3,648.2z"/>
		<path id="Path_805" class="st1" d="M839.4,648.2v-64.9l56.5-32.5l56.5,32.5v64.9l-56.5,32.5L839.4,648.2z"/>
		<path id="Path_806" class="st1" d="M1008.8,810.6v-64.9l-56.5-32.5l-56.5,32.5v64.9l56.5,32.5L1008.8,810.6z"/>
		<path id="Path_807" class="st1" d="M1065.3,778.1v-64.9l-56.5-32.5l-56.5,32.5v64.9l56.5,32.5L1065.3,778.1z"/>
		<path id="Path_808" class="st1" d="M839.4,778.1v-64.9l56.5-32.5l56.5,32.5v64.9l-56.5,32.5L839.4,778.1z"/>
		<path id="Path_809" class="st1" d="M1008.8,940.5v-64.9L952.4,843l-56.5,32.5v64.9l56.5,32.5L1008.8,940.5z"/>
		<path id="Path_810" class="st1" d="M1065.3,908v-65l-56.5-32.5L952.4,843v65l56.5,32.5L1065.3,908z"/>
		<path id="Path_811" class="st1" d="M839.4,908v-65l56.5-32.5l56.5,32.5v65l-56.5,32.5L839.4,908z"/>
		<path id="Path_812" class="st1" d="M1008.8,1070.3v-64.9l-56.5-32.5l-56.5,32.5v64.9l56.5,32.5L1008.8,1070.3z"/>
		<path id="Path_813" class="st1" d="M1065.3,1037.9V973l-56.5-32.5L952.3,973v64.9l56.5,32.5L1065.3,1037.9z"/>
		<path id="Path_814" class="st1" d="M839.4,1037.9V973l56.5-32.5l56.5,32.5v64.9l-56.5,32.5L839.4,1037.9z"/>
		<path id="Path_815" class="st1" d="M1008.8,1200.2v-64.9l-56.5-32.5l-56.5,32.5v64.9l56.5,32.5L1008.8,1200.2z"/>
		<path id="Path_816" class="st1" d="M1065.3,1167.8v-64.9l-56.5-32.5l-56.5,32.5v64.9l56.5,32.5L1065.3,1167.8z"/>
		<path id="Path_817" class="st1" d="M839.4,1167.8v-64.9l56.5-32.5l56.5,32.5v64.9l-56.5,32.5L839.4,1167.8z"/>
		<path id="Path_818" class="st1" d="M1234.7,31.2v-64.9l-56.5-32.5l-56.5,32.5v64.9l56.5,32.5L1234.7,31.2z"/>
		<path id="Path_819" class="st1" d="M1291.2-1.3v-64.9l-56.5-32.5l-56.5,32.5v64.9l56.5,32.5L1291.2-1.3z"/>
		<path id="Path_820" class="st1" d="M1065.3-1.3v-64.9l56.5-32.5l56.5,32.5v64.9l-56.5,32.5L1065.3-1.3z"/>
		<path id="Path_821" class="st1" d="M1234.7,161.1V96.2l-56.5-32.5l-56.5,32.5v64.9l56.5,32.5L1234.7,161.1z"/>
		<path id="Path_822" class="st1" d="M1291.2,128.6V63.7l-56.5-32.5l-56.5,32.5v64.9l56.5,32.5L1291.2,128.6z"/>
		<path id="Path_823" class="st1" d="M1065.3,128.6V63.7l56.5-32.5l56.5,32.5v64.9l-56.5,32.5L1065.3,128.6z"/>
		<path id="Path_824" class="st1" d="M1234.7,291v-64.9l-56.5-32.5l-56.5,32.5V291l56.5,32.5L1234.7,291z"/>
		<path id="Path_825" class="st1" d="M1291.2,258.5v-64.9l-56.5-32.5l-56.5,32.5v64.9l56.5,32.5L1291.2,258.5z"/>
		<path id="Path_826" class="st1" d="M1065.3,258.5v-64.9l56.5-32.5l56.5,32.5v64.9l-56.5,32.5L1065.3,258.5z"/>
		<path id="Path_827" class="st1" d="M1234.7,420.9V356l-56.5-32.5l-56.5,32.5v64.9l56.5,32.5L1234.7,420.9z"/>
		<path id="Path_828" class="st1" d="M1291.2,388.4v-64.9l-56.5-32.5l-56.5,32.5v64.9l56.5,32.5L1291.2,388.4z"/>
		<path id="Path_829" class="st1" d="M1065.3,388.4v-64.9l56.5-32.5l56.5,32.5v64.9l-56.5,32.5L1065.3,388.4z"/>
		<path id="Path_830" class="st1" d="M1234.7,550.8v-64.9l-56.5-32.5l-56.5,32.5v64.9l56.5,32.5L1234.7,550.8z"/>
		<path id="Path_831" class="st1" d="M1291.2,518.3v-64.9l-56.5-32.5l-56.5,32.5v64.9l56.5,32.5L1291.2,518.3z"/>
		<path id="Path_832" class="st1" d="M1065.3,518.3v-64.9l56.5-32.5l56.5,32.5v64.9l-56.5,32.5L1065.3,518.3z"/>
		<path id="Path_833" class="st1" d="M1234.7,680.7v-64.9l-56.5-32.5l-56.5,32.5v64.9l56.5,32.5L1234.7,680.7z"/>
		<path id="Path_834" class="st1" d="M1291.2,648.2v-64.9l-56.5-32.5l-56.5,32.5v64.9l56.5,32.5L1291.2,648.2z"/>
		<path id="Path_835" class="st1" d="M1065.3,648.2v-64.9l56.5-32.5l56.5,32.5v64.9l-56.5,32.5L1065.3,648.2z"/>
		<path id="Path_836" class="st1" d="M1234.7,810.6v-64.9l-56.5-32.5l-56.5,32.5v64.9l56.5,32.5L1234.7,810.6z"/>
		<path id="Path_837" class="st1" d="M1291.2,778.1v-64.9l-56.5-32.5l-56.5,32.5v64.9l56.5,32.5L1291.2,778.1z"/>
		<path id="Path_838" class="st1" d="M1065.3,778.1v-64.9l56.5-32.5l56.5,32.5v64.9l-56.5,32.5L1065.3,778.1z"/>
		<path id="Path_839" class="st1" d="M1234.7,940.5v-64.9l-56.5-32.5l-56.5,32.5v64.9l56.5,32.5L1234.7,940.5z"/>
		<path id="Path_840" class="st1" d="M1291.2,908v-65l-56.5-32.5l-56.5,32.5v65l56.5,32.5L1291.2,908z"/>
		<path id="Path_841" class="st1" d="M1065.3,908v-65l56.5-32.5l56.5,32.5v65l-56.5,32.5L1065.3,908z"/>
		<path id="Path_842" class="st1" d="M1234.7,1070.3v-64.9l-56.5-32.5l-56.5,32.5v64.9l56.5,32.5L1234.7,1070.3z"/>
		<path id="Path_843" class="st1" d="M1291.2,1037.9V973l-56.5-32.5l-56.5,32.5v64.9l56.5,32.5L1291.2,1037.9z"/>
		<path id="Path_844" class="st1" d="M1065.3,1037.9V973l56.5-32.5l56.5,32.5v64.9l-56.5,32.5L1065.3,1037.9z"/>
		<path id="Path_845" class="st1" d="M1234.7,1200.2v-64.9l-56.5-32.5l-56.5,32.5v64.9l56.5,32.5L1234.7,1200.2z"/>
		<path id="Path_846" class="st1" d="M1291.2,1167.8v-64.9l-56.5-32.5l-56.5,32.5v64.9l56.5,32.5L1291.2,1167.8z"/>
		<path id="Path_847" class="st1" d="M1065.3,1167.8v-64.9l56.5-32.5l56.5,32.5v64.9l-56.5,32.5L1065.3,1167.8z"/>
		<path id="Path_848" class="st1" d="M1460.6,31.2v-64.9l-56.5-32.5l-56.5,32.5v64.9l56.5,32.5L1460.6,31.2z"/>
		<path id="Path_849" class="st1" d="M1517.1-1.3v-64.9l-56.5-32.5l-56.5,32.5v64.9l56.5,32.5L1517.1-1.3z"/>
		<path id="Path_850" class="st1" d="M1291.2-1.3v-64.9l56.5-32.5l56.5,32.5v64.9l-56.5,32.5L1291.2-1.3z"/>
		<path id="Path_851" class="st1" d="M1460.6,161.1V96.2l-56.5-32.5l-56.5,32.5v64.9l56.5,32.5L1460.6,161.1z"/>
		<path id="Path_852" class="st1" d="M1517.1,128.6V63.7l-56.5-32.5l-56.5,32.5v64.9l56.5,32.5L1517.1,128.6z"/>
		<path id="Path_853" class="st1" d="M1291.2,128.6V63.7l56.5-32.5l56.5,32.5v64.9l-56.5,32.5L1291.2,128.6z"/>
		<path id="Path_854" class="st1" d="M1460.6,291v-64.9l-56.5-32.5l-56.5,32.5V291l56.5,32.5L1460.6,291z"/>
		<path id="Path_855" class="st1" d="M1517.1,258.5v-64.9l-56.5-32.5l-56.5,32.5v64.9l56.5,32.5L1517.1,258.5z"/>
		<path id="Path_856" class="st1" d="M1291.2,258.5v-64.9l56.5-32.5l56.5,32.5v64.9l-56.5,32.5L1291.2,258.5z"/>
		<path id="Path_857" class="st1" d="M1460.6,420.9V356l-56.5-32.5l-56.5,32.5v64.9l56.5,32.5L1460.6,420.9z"/>
		<path id="Path_858" class="st1" d="M1517.1,388.4v-64.9l-56.5-32.5l-56.5,32.5v64.9l56.5,32.5L1517.1,388.4z"/>
		<path id="Path_859" class="st1" d="M1291.2,388.4v-64.9l56.5-32.5l56.5,32.5v64.9l-56.5,32.5L1291.2,388.4z"/>
		<path id="Path_860" class="st1" d="M1460.6,550.8v-64.9l-56.5-32.5l-56.5,32.5v64.9l56.5,32.5L1460.6,550.8z"/>
		<path id="Path_861" class="st1" d="M1517.1,518.3v-64.9l-56.5-32.5l-56.5,32.5v64.9l56.5,32.5L1517.1,518.3z"/>
		<path id="Path_862" class="st1" d="M1291.2,518.3v-64.9l56.5-32.5l56.5,32.5v64.9l-56.5,32.5L1291.2,518.3z"/>
		<path id="Path_863" class="st1" d="M1460.6,680.7v-64.9l-56.5-32.5l-56.5,32.5v64.9l56.5,32.5L1460.6,680.7z"/>
		<path id="Path_864" class="st1" d="M1517.1,648.2v-64.9l-56.5-32.5l-56.5,32.5v64.9l56.5,32.5L1517.1,648.2z"/>
		<path id="Path_865" class="st1" d="M1291.2,648.2v-64.9l56.5-32.5l56.5,32.5v64.9l-56.5,32.5L1291.2,648.2z"/>
		<path id="Path_866" class="st1" d="M1460.6,810.6v-64.9l-56.5-32.5l-56.5,32.5v64.9l56.5,32.5L1460.6,810.6z"/>
		<path id="Path_867" class="st1" d="M1517.1,778.1v-64.9l-56.5-32.5l-56.5,32.5v64.9l56.5,32.5L1517.1,778.1z"/>
		<path id="Path_868" class="st1" d="M1291.2,778.1v-64.9l56.5-32.5l56.5,32.5v64.9l-56.5,32.5L1291.2,778.1z"/>
		<path id="Path_869" class="st1" d="M1460.6,940.5v-64.9l-56.5-32.5l-56.5,32.5v64.9l56.5,32.5L1460.6,940.5z"/>
		<path id="Path_870" class="st1" d="M1517.1,908v-65l-56.5-32.5l-56.5,32.5v65l56.5,32.5L1517.1,908z"/>
		<path id="Path_871" class="st1" d="M1291.2,908v-65l56.5-32.5l56.5,32.5v65l-56.5,32.5L1291.2,908z"/>
		<path id="Path_872" class="st1" d="M1460.6,1070.3v-64.9l-56.5-32.5l-56.5,32.5v64.9l56.5,32.5L1460.6,1070.3z"/>
		<path id="Path_873" class="st1" d="M1517.1,1037.9V973l-56.5-32.5l-56.5,32.5v64.9l56.5,32.5L1517.1,1037.9z"/>
		<path id="Path_874" class="st1" d="M1291.2,1037.9V973l56.5-32.5l56.5,32.5v64.9l-56.5,32.5L1291.2,1037.9z"/>
		<path id="Path_875" class="st1" d="M1460.6,1200.2v-64.9l-56.5-32.5l-56.5,32.5v64.9l56.5,32.5L1460.6,1200.2z"/>
		<path id="Path_876" class="st1" d="M1517.1,1167.8v-64.9l-56.5-32.5l-56.5,32.5v64.9l56.5,32.5L1517.1,1167.8z"/>
		<path id="Path_877" class="st1" d="M1291.2,1167.8v-64.9l56.5-32.5l56.5,32.5v64.9l-56.5,32.5L1291.2,1167.8z"/>
		<path id="Path_878" class="st1" d="M1686.5,31.2v-64.9L1630-66.2l-56.5,32.5v64.9l56.5,32.5L1686.5,31.2z"/>
		<path id="Path_879" class="st1" d="M1742.9-1.3v-64.9l-56.5-32.5L1630-66.2v64.9l56.5,32.5L1742.9-1.3z"/>
		<path id="Path_880" class="st1" d="M1517.1-1.3v-64.9l56.5-32.5l56.5,32.5v64.9l-56.5,32.5L1517.1-1.3z"/>
		<path id="Path_881" class="st1" d="M1686.5,161.1V96.2L1630,63.7l-56.5,32.5v64.9l56.5,32.5L1686.5,161.1z"/>
		<path id="Path_882" class="st1" d="M1742.9,128.6V63.7l-56.5-32.5L1630,63.7v64.9l56.5,32.5L1742.9,128.6z"/>
		<path id="Path_883" class="st1" d="M1517.1,128.6V63.7l56.5-32.5l56.5,32.5v64.9l-56.5,32.5L1517.1,128.6z"/>
		<path id="Path_884" class="st1" d="M1686.5,291v-64.9l-56.5-32.5l-56.5,32.5V291l56.5,32.5L1686.5,291z"/>
		<path id="Path_885" class="st1" d="M1742.9,258.5v-64.9l-56.5-32.5l-56.5,32.5v64.9l56.5,32.5L1742.9,258.5z"/>
		<path id="Path_886" class="st1" d="M1517.1,258.5v-64.9l56.5-32.5l56.5,32.5v64.9l-56.5,32.5L1517.1,258.5z"/>
		<path id="Path_887" class="st1" d="M1686.5,420.9V356l-56.5-32.5l-56.5,32.5v64.9l56.5,32.5L1686.5,420.9z"/>
		<path id="Path_888" class="st1" d="M1742.9,388.4v-64.9l-56.5-32.5l-56.5,32.5v64.9l56.5,32.5L1742.9,388.4z"/>
		<path id="Path_889" class="st1" d="M1517.1,388.4v-64.9l56.5-32.5l56.5,32.5v64.9l-56.5,32.5L1517.1,388.4z"/>
		<path id="Path_890" class="st1" d="M1686.5,550.8v-64.9l-56.5-32.5l-56.5,32.5v64.9l56.5,32.5L1686.5,550.8z"/>
		<path id="Path_891" class="st1" d="M1742.9,518.3v-64.9l-56.5-32.5l-56.5,32.5v64.9l56.5,32.5L1742.9,518.3z"/>
		<path id="Path_892" class="st1" d="M1517.1,518.3v-64.9l56.5-32.5l56.5,32.5v64.9l-56.5,32.5L1517.1,518.3z"/>
		<path id="Path_893" class="st1" d="M1686.5,680.7v-64.9l-56.5-32.5l-56.5,32.5v64.9l56.5,32.5L1686.5,680.7z"/>
		<path id="Path_894" class="st1" d="M1742.9,648.2v-64.9l-56.5-32.5l-56.5,32.5v64.9l56.5,32.5L1742.9,648.2z"/>
		<path id="Path_895" class="st1" d="M1517.1,648.2v-64.9l56.5-32.5l56.5,32.5v64.9l-56.5,32.5L1517.1,648.2z"/>
		<path id="Path_896" class="st1" d="M1686.5,810.6v-64.9l-56.5-32.5l-56.5,32.5v64.9L1630,843L1686.5,810.6z"/>
		<path id="Path_897" class="st1" d="M1742.9,778.1v-64.9l-56.5-32.5l-56.5,32.5v64.9l56.5,32.5L1742.9,778.1z"/>
		<path id="Path_898" class="st1" d="M1517.1,778.1v-64.9l56.5-32.5l56.5,32.5v64.9l-56.5,32.5L1517.1,778.1z"/>
		<path id="Path_899" class="st1" d="M1686.5,940.5v-64.9L1630,843l-56.5,32.5v64.9l56.5,32.5L1686.5,940.5z"/>
		<path id="Path_900" class="st1" d="M1742.9,908v-65l-56.5-32.5L1630,843v65l56.5,32.5L1742.9,908z"/>
		<path id="Path_901" class="st1" d="M1517.1,908v-65l56.5-32.5L1630,843v65l-56.5,32.5L1517.1,908z"/>
		<path id="Path_902" class="st1" d="M1686.5,1070.3v-64.9l-56.5-32.5l-56.5,32.5v64.9l56.5,32.5L1686.5,1070.3z"/>
		<path id="Path_903" class="st1" d="M1742.9,1037.9V973l-56.5-32.5l-56.5,32.5v64.9l56.5,32.5L1742.9,1037.9z"/>
		<path id="Path_904" class="st1" d="M1517.1,1037.9V973l56.5-32.5l56.5,32.5v64.9l-56.5,32.5L1517.1,1037.9z"/>
		<path id="Path_905" class="st1" d="M1686.5,1200.2v-64.9l-56.5-32.5l-56.5,32.5v64.9l56.5,32.5L1686.5,1200.2z"/>
		<path id="Path_906" class="st1" d="M1742.9,1167.8v-64.9l-56.5-32.5l-56.5,32.5v64.9l56.5,32.5L1742.9,1167.8z"/>
		<path id="Path_907" class="st1" d="M1517.1,1167.8v-64.9l56.5-32.5l56.5,32.5v64.9l-56.5,32.5L1517.1,1167.8z"/>
		<path id="Path_908" class="st1" d="M1912.4,31.2v-64.9l-56.5-32.5l-56.5,32.5v64.9l56.5,32.5L1912.4,31.2z"/>
		<path id="Path_909" class="st1" d="M1968.8-1.3v-64.9l-56.5-32.5l-56.5,32.5v64.9l56.5,32.5L1968.8-1.3z"/>
		<path id="Path_910" class="st1" d="M1742.9-1.3v-64.9l56.5-32.5l56.5,32.5v64.9l-56.5,32.5L1742.9-1.3z"/>
		<path id="Path_911" class="st1" d="M1912.4,161.1V96.2l-56.5-32.5l-56.5,32.5v64.9l56.5,32.5L1912.4,161.1z"/>
		<path id="Path_912" class="st1" d="M1968.8,128.6V63.7l-56.5-32.5l-56.5,32.5v64.9l56.5,32.5L1968.8,128.6z"/>
		<path id="Path_913" class="st1" d="M1742.9,128.6V63.7l56.5-32.5l56.5,32.5v64.9l-56.5,32.5L1742.9,128.6z"/>
		<path id="Path_914" class="st1" d="M1912.4,291v-64.9l-56.5-32.5l-56.5,32.5V291l56.5,32.5L1912.4,291z"/>
		<path id="Path_915" class="st1" d="M1968.8,258.5v-64.9l-56.5-32.5l-56.5,32.5v64.9l56.5,32.5L1968.8,258.5z"/>
		<path id="Path_916" class="st1" d="M1742.9,258.5v-64.9l56.5-32.5l56.5,32.5v64.9l-56.5,32.5L1742.9,258.5z"/>
		<path id="Path_917" class="st1" d="M1912.4,420.9V356l-56.5-32.5l-56.5,32.5v64.9l56.5,32.5L1912.4,420.9z"/>
		<path id="Path_918" class="st1" d="M1968.8,388.4v-64.9l-56.5-32.5l-56.5,32.5v64.9l56.5,32.5L1968.8,388.4z"/>
		<path id="Path_919" class="st1" d="M1742.9,388.4v-64.9l56.5-32.5l56.5,32.5v64.9l-56.5,32.5L1742.9,388.4z"/>
		<path id="Path_920" class="st1" d="M1912.4,550.8v-64.9l-56.5-32.5l-56.5,32.5v64.9l56.5,32.5L1912.4,550.8z"/>
		<path id="Path_921" class="st1" d="M1968.8,518.3v-64.9l-56.5-32.5l-56.5,32.5v64.9l56.5,32.5L1968.8,518.3z"/>
		<path id="Path_922" class="st1" d="M1742.9,518.3v-64.9l56.5-32.5l56.5,32.5v64.9l-56.5,32.5L1742.9,518.3z"/>
		<path id="Path_923" class="st1" d="M1912.4,680.7v-64.9l-56.5-32.5l-56.5,32.5v64.9l56.5,32.5L1912.4,680.7z"/>
		<path id="Path_924" class="st1" d="M1968.8,648.2v-64.9l-56.5-32.5l-56.5,32.5v64.9l56.5,32.5L1968.8,648.2z"/>
		<path id="Path_925" class="st1" d="M1742.9,648.2v-64.9l56.5-32.5l56.5,32.5v64.9l-56.5,32.5L1742.9,648.2z"/>
		<path id="Path_926" class="st1" d="M1912.4,810.6v-64.9l-56.5-32.5l-56.5,32.5v64.9l56.5,32.5L1912.4,810.6z"/>
		<path id="Path_927" class="st1" d="M1968.8,778.1v-64.9l-56.5-32.5l-56.5,32.5v64.9l56.5,32.5L1968.8,778.1z"/>
		<path id="Path_928" class="st1" d="M1742.9,778.1v-64.9l56.5-32.5l56.5,32.5v64.9l-56.5,32.5L1742.9,778.1z"/>
		<path id="Path_929" class="st1" d="M1912.4,940.5v-64.9l-56.5-32.5l-56.5,32.5v64.9l56.5,32.5L1912.4,940.5z"/>
		<path id="Path_930" class="st1" d="M1968.8,908v-65l-56.5-32.5l-56.5,32.5v65l56.5,32.5L1968.8,908z"/>
		<path id="Path_931" class="st1" d="M1742.9,908v-65l56.5-32.5l56.5,32.5v65l-56.5,32.5L1742.9,908z"/>
		<path id="Path_932" class="st1" d="M1912.4,1070.3v-64.9l-56.5-32.5l-56.5,32.5v64.9l56.5,32.5L1912.4,1070.3z"/>
		<path id="Path_933" class="st1" d="M1968.8,1037.9V973l-56.5-32.5l-56.5,32.5v64.9l56.5,32.5L1968.8,1037.9z"/>
		<path id="Path_934" class="st1" d="M1742.9,1037.9V973l56.5-32.5l56.5,32.5v64.9l-56.5,32.5L1742.9,1037.9z"/>
		<path id="Path_935" class="st1" d="M1912.4,1200.2v-64.9l-56.5-32.5l-56.5,32.5v64.9l56.5,32.5L1912.4,1200.2z"/>
		<path id="Path_936" class="st1" d="M1968.8,1167.8v-64.9l-56.5-32.5l-56.5,32.5v64.9l56.5,32.5L1968.8,1167.8z"/>
		<path id="Path_937" class="st1" d="M1742.9,1167.8v-64.9l56.5-32.5l56.5,32.5v64.9l-56.5,32.5L1742.9,1167.8z"/>
	</g>
</g>
</svg>
